<?xml version="1.0" encoding="UTF-8" standalone="no"?>
<!-- Created with Inkscape (http://www.inkscape.org/) -->

<svg
   xmlns:dc="http://purl.org/dc/elements/1.1/"
   xmlns:cc="http://creativecommons.org/ns#"
   xmlns:rdf="http://www.w3.org/1999/02/22-rdf-syntax-ns#"
   xmlns:svg="http://www.w3.org/2000/svg"
   xmlns="http://www.w3.org/2000/svg"
   xmlns:sodipodi="http://sodipodi.sourceforge.net/DTD/sodipodi-0.dtd"
   xmlns:inkscape="http://www.inkscape.org/namespaces/inkscape"
   width="95.212509mm"
   height="74.365479mm"
   viewBox="0 0 95.212509 74.365479"
   version="1.1"
   id="svg17714"
   inkscape:version="0.92.3 (2405546, 2018-03-11)"
   sodipodi:docname="global_convergence.svg">
  <sodipodi:namedview
     id="base"
     pagecolor="#ffffff"
     bordercolor="#666666"
     borderopacity="1.0"
     inkscape:pageopacity="0.0"
     inkscape:pageshadow="2"
     inkscape:zoom="2.8"
     inkscape:cx="256.53006"
     inkscape:cy="193.63345"
     inkscape:document-units="mm"
     inkscape:current-layer="layer3"
     showgrid="false"
     fit-margin-top="0"
     fit-margin-left="0"
     fit-margin-right="0"
     fit-margin-bottom="0"
     inkscape:window-width="1853"
     inkscape:window-height="1052"
     inkscape:window-x="1987"
     inkscape:window-y="0"
     inkscape:window-maximized="1" />
  <defs
     id="defs17708" />
  <metadata
     id="metadata17711">
    <rdf:RDF>
      <cc:Work
         rdf:about="">
        <dc:format>image/svg+xml</dc:format>
        <dc:type
           rdf:resource="http://purl.org/dc/dcmitype/StillImage" />
        <dc:title></dc:title>
      </cc:Work>
    </rdf:RDF>
  </metadata>
  <g
     transform="translate(-32.240517,-108.74316)"
     id="layer1"
     inkscape:groupmode="layer"
     inkscape:label="Layer 1"
     style="display:inline">
    <path
       inkscape:connector-curvature="0"
       id="path18259"
       d="m 53.453905,136.37101 73.595225,19.71978"
       style="fill:none;stroke:#000000;stroke-width:0.26458332px;stroke-linecap:butt;stroke-linejoin:miter;stroke-opacity:1" />
    <path
       inkscape:connector-curvature="0"
       id="path18261"
       d="m 67.35192,163.36523 45.16855,-45.16855"
       style="fill:none;stroke:#000000;stroke-width:0.26458332px;stroke-linecap:butt;stroke-linejoin:miter;stroke-opacity:1" />
    <path
       inkscape:connector-curvature="0"
       id="path18263"
       d="M 77.240894,110.44587 93.544333,175.9269"
       style="fill:none;stroke:#000000;stroke-width:0.26458332px;stroke-linecap:butt;stroke-linejoin:miter;stroke-opacity:1" />
    <circle
       r="1.7953868"
       cy="144.95908"
       cx="85.7061"
       id="path18271"
       style="fill:#000000;fill-opacity:1;stroke:#000000;stroke-width:1;stroke-miterlimit:4;stroke-dasharray:none;stroke-dashoffset:0;stroke-opacity:1" />
    <g
       transform="translate(44.267646,112.21767)"
       style="display:inline"
       id="g18447">
      <g
         word-spacing="normal"
         letter-spacing="normal"
         font-size-adjust="none"
         font-stretch="normal"
         font-weight="normal"
         font-variant="normal"
         font-style="normal"
         stroke-miterlimit="10.433"
         xml:space="preserve"
         transform="matrix(0.1062364,0,0,-0.1062364,-18.59137,71.409382)"
         id="content"
         style="font-style:normal;font-variant:normal;font-weight:normal;font-stretch:normal;letter-spacing:normal;word-spacing:normal;text-anchor:start;fill:none;fill-opacity:1;fill-rule:evenodd;stroke:#000000;stroke-linecap:butt;stroke-linejoin:miter;stroke-miterlimit:10.43299961;stroke-dasharray:none;stroke-dashoffset:0;stroke-opacity:1"><path
           id="path18442"
           d="m 472.86,440.23 -0.65,-0.01 -0.64,-0.03 -0.64,-0.05 -0.62,-0.06 -0.61,-0.08 -0.6,-0.1 -0.59,-0.11 -0.58,-0.13 -0.56,-0.14 -0.55,-0.15 -0.54,-0.16 -0.53,-0.18 -0.51,-0.18 -0.5,-0.2 -0.48,-0.2 -0.47,-0.21 -0.45,-0.22 -0.44,-0.22 -0.43,-0.23 -0.41,-0.23 -0.39,-0.24 -0.38,-0.24 -0.36,-0.24 -0.35,-0.24 -0.33,-0.24 -0.31,-0.24 -0.29,-0.25 -0.27,-0.23 -0.26,-0.24 -0.24,-0.23 -0.22,-0.23 -0.2,-0.22 c -1.74,-1.99 -1.89,-3.44 -1.89,-3.54 0,-0.29 0.2,-0.4 0.5,-0.4 0.79,0 1.93,0.7 2.34,0.95 1.05,0.69 1.19,1 1.48,1.94 0.71,2 2.1,3.73 8.38,4.03 -0.89,-11.2 -3.89,-22.11 -8.08,-32.53 -0.3,-0.75 -0.3,-0.84 -0.3,-0.89 0,-0.16 0.16,-0.35 0.5,-0.35 0.8,0 3.19,1.1 3.74,2.4 2.59,6.07 6.69,17.53 8.17,31.37 h 2.59 c 6.08,0 11.91,-2.33 11.91,-7.31 0,-3.74 -3.58,-10.72 -13.25,-11.02 -1.05,-0.04 -1.59,-0.04 -2.98,-0.95 -0.91,-0.59 -1.3,-1.14 -1.3,-1.44 0,-0.34 0.3,-0.34 0.94,-0.34 9.08,0 20.83,7.67 20.83,15.89 0,5.67 -6.72,7.92 -12.5,7.92 z"
           inkscape:connector-curvature="0"
           style="fill:#000000;stroke-width:0" /><path
           id="path18444"
           d="m 501.87,420.92 v 0.04 0.04 0.05 0.04 0.03 0.04 0.04 0.03 l -0.01,0.04 v 0.03 0.03 0.03 0.03 l -0.01,0.03 v 0.03 0.02 l -0.01,0.03 v 0.02 l -0.01,0.03 v 0.02 l -0.02,0.04 -0.01,0.04 -0.02,0.03 -0.02,0.03 -0.02,0.03 -0.02,0.03 -0.03,0.02 -0.03,0.02 -0.03,0.02 -0.04,0.01 -0.04,0.01 -0.05,0.02 h -0.02 -0.02 l -0.03,0.01 h -0.03 l -0.02,0.01 h -0.03 -0.03 -0.03 -0.04 l -0.03,0.01 h -0.03 -0.04 -0.03 -0.04 -0.04 -0.04 -0.04 -0.05 -0.04 -0.05 c -2.23,-2.2 -5.39,-2.23 -6.82,-2.23 v -1.25 c 0.84,0 3.14,0 5.04,0.97 v -17.77 c 0,-1.16 0,-1.61 -3.48,-1.61 h -1.31 v -1.25 c 0.62,0.03 4.9,0.14 6.2,0.14 1.08,0 5.47,-0.11 6.23,-0.14 v 1.25 h -1.32 c -3.49,0 -3.49,0.45 -3.49,1.61 z"
           inkscape:connector-curvature="0"
           style="fill:#000000;stroke-width:0" /></g>    </g>
    <g
       transform="translate(56.460687,109.91459)"
       id="g18519">
      <g
         style="font-style:normal;font-variant:normal;font-weight:normal;font-stretch:normal;letter-spacing:normal;word-spacing:normal;text-anchor:start;fill:none;fill-opacity:1;fill-rule:evenodd;stroke:#000000;stroke-linecap:butt;stroke-linejoin:miter;stroke-miterlimit:10.43299961;stroke-dasharray:none;stroke-dashoffset:0;stroke-opacity:1"
         id="g18517"
         transform="matrix(0.1062364,0,0,-0.1062364,-18.59137,71.409382)"
         xml:space="preserve"
         stroke-miterlimit="10.433"
         font-style="normal"
         font-variant="normal"
         font-weight="normal"
         font-stretch="normal"
         font-size-adjust="none"
         letter-spacing="normal"
         word-spacing="normal"><path
           style="fill:#000000;stroke-width:0"
           inkscape:connector-curvature="0"
           d="m 472.86,440.23 -0.65,-0.01 -0.64,-0.03 -0.64,-0.05 -0.62,-0.06 -0.61,-0.08 -0.6,-0.1 -0.59,-0.11 -0.58,-0.13 -0.56,-0.14 -0.55,-0.15 -0.54,-0.16 -0.53,-0.18 -0.51,-0.18 -0.5,-0.2 -0.48,-0.2 -0.47,-0.21 -0.45,-0.22 -0.44,-0.22 -0.43,-0.23 -0.41,-0.23 -0.39,-0.24 -0.38,-0.24 -0.36,-0.24 -0.35,-0.24 -0.33,-0.24 -0.31,-0.24 -0.29,-0.25 -0.27,-0.23 -0.26,-0.24 -0.24,-0.23 -0.22,-0.23 -0.2,-0.22 c -1.74,-1.99 -1.89,-3.44 -1.89,-3.54 0,-0.29 0.2,-0.4 0.5,-0.4 0.79,0 1.93,0.7 2.34,0.95 1.05,0.69 1.19,1 1.48,1.94 0.71,2 2.1,3.73 8.38,4.03 -0.89,-11.2 -3.89,-22.11 -8.08,-32.53 -0.3,-0.75 -0.3,-0.84 -0.3,-0.89 0,-0.16 0.16,-0.35 0.5,-0.35 0.8,0 3.19,1.1 3.74,2.4 2.59,6.07 6.69,17.53 8.17,31.37 h 2.59 c 6.08,0 11.91,-2.33 11.91,-7.31 0,-3.74 -3.58,-10.72 -13.25,-11.02 -1.05,-0.04 -1.59,-0.04 -2.98,-0.95 -0.91,-0.59 -1.3,-1.14 -1.3,-1.44 0,-0.34 0.3,-0.34 0.94,-0.34 9.08,0 20.83,7.67 20.83,15.89 0,5.67 -6.72,7.92 -12.5,7.92 z"
           id="path18513" /><path
           style="fill:#000000;stroke-width:0"
           inkscape:connector-curvature="0"
           d="m 507.79,405.11 h -1.18 c -0.1,-0.77 -0.46,-2.83 -0.91,-3.18 -0.27,-0.2 -2.95,-0.2 -3.44,-0.2 h -6.42 c 3.66,3.23 4.87,4.2 6.97,5.84 2.58,2.07 4.98,4.22 4.98,7.54 0,4.21 -3.68,6.79 -8.15,6.79 -4.32,0 -7.25,-3.03 -7.25,-6.23 0,-1.78 1.5,-1.96 1.86,-1.96 0.82,0 1.84,0.6 1.84,1.85 0,0.62 -0.25,1.84 -2.06,1.84 1.08,2.47 3.45,3.24 5.09,3.24 3.49,0 5.3,-2.71 5.3,-5.53 0,-3.04 -2.16,-5.44 -3.28,-6.69 l -8.39,-8.3 c -0.36,-0.31 -0.36,-0.39 -0.36,-1.36 h 14.36 z"
           id="path18515" /></g>    </g>
    <g
       id="g18605"
       transform="translate(70.681548,115.28274)">
      <g
         word-spacing="normal"
         letter-spacing="normal"
         font-size-adjust="none"
         font-stretch="normal"
         font-weight="normal"
         font-variant="normal"
         font-style="normal"
         stroke-miterlimit="10.433"
         xml:space="preserve"
         transform="matrix(0.1062364,0,0,-0.1062364,-18.59137,71.409382)"
         id="g18603"
         style="font-style:normal;font-variant:normal;font-weight:normal;font-stretch:normal;letter-spacing:normal;word-spacing:normal;text-anchor:start;fill:none;fill-opacity:1;fill-rule:evenodd;stroke:#000000;stroke-linecap:butt;stroke-linejoin:miter;stroke-miterlimit:10.43299961;stroke-dasharray:none;stroke-dashoffset:0;stroke-opacity:1"><path
           id="path18599"
           d="m 472.86,440.23 -0.65,-0.01 -0.64,-0.03 -0.64,-0.05 -0.62,-0.06 -0.61,-0.08 -0.6,-0.1 -0.59,-0.11 -0.58,-0.13 -0.56,-0.14 -0.55,-0.15 -0.54,-0.16 -0.53,-0.18 -0.51,-0.18 -0.5,-0.2 -0.48,-0.2 -0.47,-0.21 -0.45,-0.22 -0.44,-0.22 -0.43,-0.23 -0.41,-0.23 -0.39,-0.24 -0.38,-0.24 -0.36,-0.24 -0.35,-0.24 -0.33,-0.24 -0.31,-0.24 -0.29,-0.25 -0.27,-0.23 -0.26,-0.24 -0.24,-0.23 -0.22,-0.23 -0.2,-0.22 c -1.74,-1.99 -1.89,-3.44 -1.89,-3.54 0,-0.29 0.2,-0.4 0.5,-0.4 0.79,0 1.93,0.7 2.34,0.95 1.05,0.69 1.19,1 1.48,1.94 0.71,2 2.1,3.73 8.38,4.03 -0.89,-11.2 -3.89,-22.11 -8.08,-32.53 -0.3,-0.75 -0.3,-0.84 -0.3,-0.89 0,-0.16 0.16,-0.35 0.5,-0.35 0.8,0 3.19,1.1 3.74,2.4 2.59,6.07 6.69,17.53 8.17,31.37 h 2.59 c 6.08,0 11.91,-2.33 11.91,-7.31 0,-3.74 -3.58,-10.72 -13.25,-11.02 -1.05,-0.04 -1.59,-0.04 -2.98,-0.95 -0.91,-0.59 -1.3,-1.14 -1.3,-1.44 0,-0.34 0.3,-0.34 0.94,-0.34 9.08,0 20.83,7.67 20.83,15.89 0,5.67 -6.72,7.92 -12.5,7.92 z"
           inkscape:connector-curvature="0"
           style="fill:#000000;stroke-width:0" /><path
           id="path18601"
           d="m 499.71,410.4 h 0.26 l 0.25,-0.02 0.24,-0.03 0.24,-0.04 0.23,-0.05 0.23,-0.06 0.22,-0.07 0.21,-0.08 0.21,-0.1 0.2,-0.1 0.2,-0.12 0.19,-0.12 0.18,-0.14 0.17,-0.15 0.17,-0.16 0.16,-0.17 0.15,-0.18 0.14,-0.19 0.14,-0.2 0.13,-0.22 0.11,-0.22 0.11,-0.24 0.1,-0.24 0.09,-0.26 0.08,-0.27 0.07,-0.28 0.06,-0.29 0.05,-0.3 0.04,-0.31 0.02,-0.32 0.02,-0.33 0.01,-0.35 c 0,-4.33 -2.52,-5.61 -4.53,-5.61 -1.4,0 -4.47,0.38 -5.93,2.44 1.63,0.06 2.02,1.22 2.02,1.95 0,1.11 -0.84,1.91 -1.92,1.91 -0.97,0 -1.96,-0.59 -1.96,-2.02 0,-3.28 3.63,-5.4 7.85,-5.4 4.84,0 8.19,3.25 8.19,6.73 0,2.72 -2.22,5.44 -6.07,6.24 3.66,1.33 4.99,3.93 4.99,6.06 0,2.75 -3.17,4.81 -7.03,4.81 -3.88,0 -6.83,-1.89 -6.83,-4.67 0,-1.19 0.76,-1.84 1.81,-1.84 1.08,0 1.77,0.79 1.77,1.76 0,1.02 -0.69,1.75 -1.77,1.81 1.22,1.55 3.61,1.93 4.91,1.93 1.56,0 3.76,-0.77 3.76,-3.8 0,-1.47 -0.48,-3.06 -1.39,-4.14 -1.15,-1.33 -2.12,-1.41 -3.87,-1.5 -0.88,-0.08 -0.94,-0.08 -1.11,-0.11 -0.08,0 -0.36,-0.06 -0.36,-0.45 0,-0.49 0.31,-0.49 0.9,-0.49 z"
           inkscape:connector-curvature="0"
           style="fill:#000000;stroke-width:0" /></g>    </g>
    <g
       transform="translate(61.471991,126.41849)"
       id="g18695">
      <g
         style="font-style:normal;font-variant:normal;font-weight:normal;font-stretch:normal;letter-spacing:normal;word-spacing:normal;text-anchor:start;fill:none;fill-opacity:1;fill-rule:evenodd;stroke:#000000;stroke-linecap:butt;stroke-linejoin:miter;stroke-miterlimit:10.43299961;stroke-dasharray:none;stroke-dashoffset:0;stroke-opacity:1"
         id="g18693"
         transform="matrix(0.1062364,0,0,-0.1062364,-18.59137,71.409382)"
         xml:space="preserve"
         stroke-miterlimit="10.433"
         font-style="normal"
         font-variant="normal"
         font-weight="normal"
         font-stretch="normal"
         font-size-adjust="none"
         letter-spacing="normal"
         word-spacing="normal"><path
           style="fill:#000000;stroke-width:0"
           inkscape:connector-curvature="0"
           d="m 472.86,440.23 -0.65,-0.01 -0.64,-0.03 -0.64,-0.05 -0.62,-0.06 -0.61,-0.08 -0.6,-0.1 -0.59,-0.11 -0.58,-0.13 -0.56,-0.14 -0.55,-0.15 -0.54,-0.16 -0.53,-0.18 -0.51,-0.18 -0.5,-0.2 -0.48,-0.2 -0.47,-0.21 -0.45,-0.22 -0.44,-0.22 -0.43,-0.23 -0.41,-0.23 -0.39,-0.24 -0.38,-0.24 -0.36,-0.24 -0.35,-0.24 -0.33,-0.24 -0.31,-0.24 -0.29,-0.25 -0.27,-0.23 -0.26,-0.24 -0.24,-0.23 -0.22,-0.23 -0.2,-0.22 c -1.74,-1.99 -1.89,-3.44 -1.89,-3.54 0,-0.29 0.2,-0.4 0.5,-0.4 0.79,0 1.93,0.7 2.34,0.95 1.05,0.69 1.19,1 1.48,1.94 0.71,2 2.1,3.73 8.38,4.03 -0.89,-11.2 -3.89,-22.11 -8.08,-32.53 -0.3,-0.75 -0.3,-0.84 -0.3,-0.89 0,-0.16 0.16,-0.35 0.5,-0.35 0.8,0 3.19,1.1 3.74,2.4 2.59,6.07 6.69,17.53 8.17,31.37 h 2.59 c 6.08,0 11.91,-2.33 11.91,-7.31 0,-3.74 -3.58,-10.72 -13.25,-11.02 -1.05,-0.04 -1.59,-0.04 -2.98,-0.95 -0.91,-0.59 -1.3,-1.14 -1.3,-1.44 0,-0.34 0.3,-0.34 0.94,-0.34 9.08,0 20.83,7.67 20.83,15.89 0,5.67 -6.72,7.92 -12.5,7.92 z"
           id="path18689" /><path
           style="fill:#000000;stroke-width:0"
           inkscape:connector-curvature="0"
           d="m 508.64,404.48 v 1.25 h -3.88 v 15.55 c 0,0.72 0,0.97 -0.76,0.97 -0.43,0 -0.57,0 -0.91,-0.49 l -11.53,-16.03 v -1.25 h 10.25 l 0.23,1.25 h -9.2 l 9.2,12.75 v -12.75 l -0.23,-1.25 v -2.86 c 0,-1.19 0,-1.61 -2.83,-1.61 h -0.94 v -1.25 c 1.74,0.06 3.97,0.14 5.22,0.14 1.3,0 3.52,-0.08 5.27,-0.14 v 1.25 h -0.94 c -2.83,0 -2.83,0.42 -2.83,1.61 v 2.86 z"
           id="path18691" /></g>    </g>
    <g
       id="g18789"
       transform="translate(50.51394,126.28486)">
      <g
         word-spacing="normal"
         letter-spacing="normal"
         font-size-adjust="none"
         font-stretch="normal"
         font-weight="normal"
         font-variant="normal"
         font-style="normal"
         stroke-miterlimit="10.433"
         xml:space="preserve"
         transform="matrix(0.1062364,0,0,-0.1062364,-18.59137,71.409382)"
         id="g18787"
         style="font-style:normal;font-variant:normal;font-weight:normal;font-stretch:normal;letter-spacing:normal;word-spacing:normal;text-anchor:start;fill:none;fill-opacity:1;fill-rule:evenodd;stroke:#000000;stroke-linecap:butt;stroke-linejoin:miter;stroke-miterlimit:10.43299961;stroke-dasharray:none;stroke-dashoffset:0;stroke-opacity:1"><path
           id="path18783"
           d="m 472.86,440.23 -0.65,-0.01 -0.64,-0.03 -0.64,-0.05 -0.62,-0.06 -0.61,-0.08 -0.6,-0.1 -0.59,-0.11 -0.58,-0.13 -0.56,-0.14 -0.55,-0.15 -0.54,-0.16 -0.53,-0.18 -0.51,-0.18 -0.5,-0.2 -0.48,-0.2 -0.47,-0.21 -0.45,-0.22 -0.44,-0.22 -0.43,-0.23 -0.41,-0.23 -0.39,-0.24 -0.38,-0.24 -0.36,-0.24 -0.35,-0.24 -0.33,-0.24 -0.31,-0.24 -0.29,-0.25 -0.27,-0.23 -0.26,-0.24 -0.24,-0.23 -0.22,-0.23 -0.2,-0.22 c -1.74,-1.99 -1.89,-3.44 -1.89,-3.54 0,-0.29 0.2,-0.4 0.5,-0.4 0.79,0 1.93,0.7 2.34,0.95 1.05,0.69 1.19,1 1.48,1.94 0.71,2 2.1,3.73 8.38,4.03 -0.89,-11.2 -3.89,-22.11 -8.08,-32.53 -0.3,-0.75 -0.3,-0.84 -0.3,-0.89 0,-0.16 0.16,-0.35 0.5,-0.35 0.8,0 3.19,1.1 3.74,2.4 2.59,6.07 6.69,17.53 8.17,31.37 h 2.59 c 6.08,0 11.91,-2.33 11.91,-7.31 0,-3.74 -3.58,-10.72 -13.25,-11.02 -1.05,-0.04 -1.59,-0.04 -2.98,-0.95 -0.91,-0.59 -1.3,-1.14 -1.3,-1.44 0,-0.34 0.3,-0.34 0.94,-0.34 9.08,0 20.83,7.67 20.83,15.89 0,5.67 -6.72,7.92 -12.5,7.92 z"
           inkscape:connector-curvature="0"
           style="fill:#000000;stroke-width:0" /><path
           id="path18785"
           d="m 495.61,418.2 0.16,-0.04 0.16,-0.04 0.15,-0.04 0.15,-0.03 0.15,-0.03 0.14,-0.03 0.14,-0.03 0.14,-0.02 0.13,-0.03 0.13,-0.02 0.12,-0.02 0.12,-0.01 0.12,-0.02 0.11,-0.01 0.11,-0.02 0.1,-0.01 0.11,-0.01 0.09,-0.01 h 0.1 l 0.09,-0.01 0.09,-0.01 h 0.08 0.09 l 0.07,-0.01 h 0.08 0.07 0.07 0.07 0.06 0.06 0.06 0.05 c 4.59,0 7.31,3.14 7.31,3.67 0,0.37 -0.23,0.48 -0.4,0.48 -0.08,0 -0.14,0 -0.28,-0.11 -0.85,-0.31 -2.69,-1.01 -5.27,-1.01 -0.97,0 -2.83,0.08 -5.09,0.95 -0.35,0.17 -0.41,0.17 -0.46,0.17 -0.45,0 -0.45,-0.39 -0.45,-0.94 v -10.28 c 0,-0.59 0,-1.01 0.56,-1.01 0.31,0 0.35,0.06 0.71,0.48 1.5,1.92 3.62,2.21 4.84,2.21 2.08,0 3.03,-1.68 3.2,-1.96 0.63,-1.15 0.83,-2.47 0.83,-4.5 0,-1.04 0,-3.09 -1.05,-4.62 -0.86,-1.27 -2.36,-2.1 -4.06,-2.1 -2.26,0 -4.61,1.25 -5.48,3.55 1.32,-0.09 1.98,0.77 1.98,1.7 0,1.5 -1.28,1.78 -1.73,1.78 -0.07,0 -1.75,0 -1.75,-1.87 0,-3.14 2.86,-6.28 7.04,-6.28 4.46,0 8.36,3.31 8.36,7.7 0,3.94 -3,7.56 -7.31,7.56 -1.53,0 -3.34,-0.37 -4.87,-1.7 z"
           inkscape:connector-curvature="0"
           style="fill:#000000;stroke-width:0" /></g>    </g>
    <g
       transform="translate(39.432032,120.13551)"
       id="g18887">
      <g
         style="font-style:normal;font-variant:normal;font-weight:normal;font-stretch:normal;letter-spacing:normal;word-spacing:normal;text-anchor:start;fill:none;fill-opacity:1;fill-rule:evenodd;stroke:#000000;stroke-linecap:butt;stroke-linejoin:miter;stroke-miterlimit:10.43299961;stroke-dasharray:none;stroke-dashoffset:0;stroke-opacity:1"
         id="g18885"
         transform="matrix(0.1062364,0,0,-0.1062364,-18.59137,71.409382)"
         xml:space="preserve"
         stroke-miterlimit="10.433"
         font-style="normal"
         font-variant="normal"
         font-weight="normal"
         font-stretch="normal"
         font-size-adjust="none"
         letter-spacing="normal"
         word-spacing="normal"><path
           style="fill:#000000;stroke-width:0"
           inkscape:connector-curvature="0"
           d="m 472.86,440.23 -0.65,-0.01 -0.64,-0.03 -0.64,-0.05 -0.62,-0.06 -0.61,-0.08 -0.6,-0.1 -0.59,-0.11 -0.58,-0.13 -0.56,-0.14 -0.55,-0.15 -0.54,-0.16 -0.53,-0.18 -0.51,-0.18 -0.5,-0.2 -0.48,-0.2 -0.47,-0.21 -0.45,-0.22 -0.44,-0.22 -0.43,-0.23 -0.41,-0.23 -0.39,-0.24 -0.38,-0.24 -0.36,-0.24 -0.35,-0.24 -0.33,-0.24 -0.31,-0.24 -0.29,-0.25 -0.27,-0.23 -0.26,-0.24 -0.24,-0.23 -0.22,-0.23 -0.2,-0.22 c -1.74,-1.99 -1.89,-3.44 -1.89,-3.54 0,-0.29 0.2,-0.4 0.5,-0.4 0.79,0 1.93,0.7 2.34,0.95 1.05,0.69 1.19,1 1.48,1.94 0.71,2 2.1,3.73 8.38,4.03 -0.89,-11.2 -3.89,-22.11 -8.08,-32.53 -0.3,-0.75 -0.3,-0.84 -0.3,-0.89 0,-0.16 0.16,-0.35 0.5,-0.35 0.8,0 3.19,1.1 3.74,2.4 2.59,6.07 6.69,17.53 8.17,31.37 h 2.59 c 6.08,0 11.91,-2.33 11.91,-7.31 0,-3.74 -3.58,-10.72 -13.25,-11.02 -1.05,-0.04 -1.59,-0.04 -2.98,-0.95 -0.91,-0.59 -1.3,-1.14 -1.3,-1.44 0,-0.34 0.3,-0.34 0.94,-0.34 9.08,0 20.83,7.67 20.83,15.89 0,5.67 -6.72,7.92 -12.5,7.92 z"
           id="path18881" /><path
           style="fill:#000000;stroke-width:0"
           inkscape:connector-curvature="0"
           d="m 495.43,410.15 0.01,0.53 0.01,0.53 0.01,0.52 0.03,0.51 0.04,0.51 0.05,0.49 0.06,0.49 0.08,0.48 0.09,0.47 0.11,0.46 0.13,0.46 0.14,0.44 0.08,0.22 0.09,0.21 0.09,0.22 0.1,0.21 0.1,0.21 0.11,0.2 0.11,0.2 0.13,0.2 c 1.18,1.9 3.06,3.18 5.29,3.18 1.05,0 2.44,-0.28 3.14,-1.22 -0.87,-0.06 -1.61,-0.66 -1.61,-1.67 0,-0.88 0.6,-1.64 1.64,-1.64 1.05,0 1.68,0.7 1.68,1.7 0,2.03 -1.47,3.84 -4.93,3.84 -5.01,0 -10.14,-4.61 -10.14,-12.09 0,-9.03 4.25,-11.75 8.1,-11.75 4.25,0 7.94,3.25 7.94,7.81 0,4.42 -3.52,7.7 -7.6,7.7 l -0.17,-0.98 c 1.61,0 2.69,-0.63 3.55,-1.91 0.84,-1.32 0.87,-2.79 0.87,-4.81 0,-1.98 0,-3.45 -0.94,-4.81 -0.84,-1.22 -1.95,-1.88 -3.65,-1.88 v 0 c -1.75,0 -3.11,1 -3.85,2.55 -0.51,1.03 -0.79,2.78 -0.79,4.88 0,3.37 2.03,5.98 4.81,5.98 l 0.17,0.98 c -2.78,0 -4.31,-1.84 -5.08,-3.42 z"
           id="path18883" /></g>    </g>
  </g>
  <g
     style="display:inline"
     inkscape:label="removed_boundary"
     id="layer2"
     inkscape:groupmode="layer">
    <path
       inkscape:connector-curvature="0"
       id="path18265"
       d="M 43.297662,142.25094 118.13313,127.01658"
       style="fill:none;stroke:#000000;stroke-width:0.26458332px;stroke-linecap:butt;stroke-linejoin:miter;stroke-opacity:1"
       transform="translate(-32.240516,-108.74316)" />
    <path
       inkscape:connector-curvature="0"
       id="path18269"
       d="m 32.606882,130.75835 94.346138,51.85029"
       style="fill:none;stroke:#000000;stroke-width:0.26458332px;stroke-linecap:butt;stroke-linejoin:miter;stroke-opacity:1"
       transform="translate(-32.240516,-108.74316)" />
    <path
       inkscape:connector-curvature="0"
       id="path18267"
       d="m 104.23511,101.3587 8.8199,75.37001"
       style="fill:none;stroke:#000000;stroke-width:0.26458332px;stroke-linecap:butt;stroke-linejoin:miter;stroke-opacity:1"
       transform="translate(-32.240516,-108.74316)" />
    <g
       transform="translate(24.190476,-8.8824405)"
       id="g19101">
      <g
         style="font-style:normal;font-variant:normal;font-weight:normal;font-stretch:normal;letter-spacing:normal;word-spacing:normal;text-anchor:start;fill:none;fill-opacity:1;fill-rule:evenodd;stroke:#000000;stroke-linecap:butt;stroke-linejoin:miter;stroke-miterlimit:10.43299961;stroke-dasharray:none;stroke-dashoffset:0;stroke-opacity:1"
         id="g19099"
         transform="matrix(0.1062364,0,0,-0.1062364,-18.59137,71.409382)"
         xml:space="preserve"
         stroke-miterlimit="10.433"
         font-style="normal"
         font-variant="normal"
         font-weight="normal"
         font-stretch="normal"
         font-size-adjust="none"
         letter-spacing="normal"
         word-spacing="normal"><path
           style="fill:#000000;stroke-width:0"
           inkscape:connector-curvature="0"
           d="m 472.86,440.23 -0.65,-0.01 -0.64,-0.03 -0.64,-0.05 -0.62,-0.06 -0.61,-0.08 -0.6,-0.1 -0.59,-0.11 -0.58,-0.13 -0.56,-0.14 -0.55,-0.15 -0.54,-0.16 -0.53,-0.18 -0.51,-0.18 -0.5,-0.2 -0.48,-0.2 -0.47,-0.21 -0.45,-0.22 -0.44,-0.22 -0.43,-0.23 -0.41,-0.23 -0.39,-0.24 -0.38,-0.24 -0.36,-0.24 -0.35,-0.24 -0.33,-0.24 -0.31,-0.24 -0.29,-0.25 -0.27,-0.23 -0.26,-0.24 -0.24,-0.23 -0.22,-0.23 -0.2,-0.22 c -1.74,-1.99 -1.89,-3.44 -1.89,-3.54 0,-0.29 0.2,-0.4 0.5,-0.4 0.79,0 1.93,0.7 2.34,0.95 1.05,0.69 1.19,1 1.48,1.94 0.71,2 2.1,3.73 8.38,4.03 -0.89,-11.2 -3.89,-22.11 -8.08,-32.53 -0.3,-0.75 -0.3,-0.84 -0.3,-0.89 0,-0.16 0.16,-0.35 0.5,-0.35 0.8,0 3.19,1.1 3.74,2.4 2.59,6.07 6.69,17.53 8.17,31.37 h 2.59 c 6.08,0 11.91,-2.33 11.91,-7.31 0,-3.74 -3.58,-10.72 -13.25,-11.02 -1.05,-0.04 -1.59,-0.04 -2.98,-0.95 -0.91,-0.59 -1.3,-1.14 -1.3,-1.44 0,-0.34 0.3,-0.34 0.94,-0.34 9.08,0 20.83,7.67 20.83,15.89 0,5.67 -6.72,7.92 -12.5,7.92 z"
           id="path19095" /><path
           style="fill:#000000;stroke-width:0"
           inkscape:connector-curvature="0"
           d="m 502.57,411.34 0.26,0.13 0.24,0.12 0.24,0.13 0.24,0.13 0.22,0.14 0.22,0.13 0.22,0.14 0.21,0.14 0.2,0.14 0.19,0.15 0.19,0.15 0.18,0.15 0.17,0.15 0.16,0.16 0.16,0.16 0.15,0.16 0.14,0.17 0.13,0.17 0.13,0.17 0.11,0.17 0.11,0.18 0.1,0.18 0.09,0.19 0.08,0.19 0.08,0.19 0.06,0.2 0.05,0.2 0.05,0.21 0.03,0.21 0.03,0.21 0.01,0.22 0.01,0.22 c 0,3.39 -3.52,5.2 -6.89,5.2 l -0.08,-1.01 c 2.72,0 5.12,-1.71 5.12,-4.19 0,-3.09 -3.62,-4.66 -3.68,-4.66 -0.08,0 -0.14,0.03 -0.39,0.17 l -4.22,2.44 c -0.91,0.52 -1.88,1.47 -1.88,2.75 0,2.21 2.55,3.49 5.05,3.49 l 0.08,1.01 c -3.85,0 -6.97,-2.51 -6.97,-5.83 0,-1.62 0.76,-2.81 1.39,-3.51 0.62,-0.74 0.87,-0.88 2.92,-2.1 -1.95,-0.82 -5.41,-2.71 -5.41,-6.37 0,-3.86 4.02,-6.03 7.99,-6.03 l 0.08,1.12 c -3.22,0 -5.97,2.05 -5.97,4.91 0,2.58 1.92,4.56 4.42,5.72 v 0 l 4.78,-2.75 c 0.91,-0.53 2.64,-1.58 2.64,-3.63 0,-2.61 -2.89,-4.25 -5.87,-4.25 l -0.08,-1.12 c 4.42,0 8.05,2.83 8.05,6.59 0,2.3 -1.36,4.25 -3.38,5.44 -0.45,0.28 -1.67,0.97 -2.16,1.25 z"
           id="path19097" /></g>    </g>
    <g
       id="g19197"
       transform="matrix(0.75593715,0,0,0.75593715,48.126069,-1.2691585)">
      <g
         word-spacing="normal"
         letter-spacing="normal"
         font-size-adjust="none"
         font-stretch="normal"
         font-weight="normal"
         font-variant="normal"
         font-style="normal"
         stroke-miterlimit="10.433"
         xml:space="preserve"
         transform="matrix(0.1062364,0,0,-0.1062364,-18.59137,71.409382)"
         id="g19195"
         style="font-style:normal;font-variant:normal;font-weight:normal;font-stretch:normal;letter-spacing:normal;word-spacing:normal;text-anchor:start;fill:none;fill-opacity:1;fill-rule:evenodd;stroke:#000000;stroke-linecap:butt;stroke-linejoin:miter;stroke-miterlimit:10.43299961;stroke-dasharray:none;stroke-dashoffset:0;stroke-opacity:1"><path
           id="path19191"
           d="m 472.86,440.23 -0.65,-0.01 -0.64,-0.03 -0.64,-0.05 -0.62,-0.06 -0.61,-0.08 -0.6,-0.1 -0.59,-0.11 -0.58,-0.13 -0.56,-0.14 -0.55,-0.15 -0.54,-0.16 -0.53,-0.18 -0.51,-0.18 -0.5,-0.2 -0.48,-0.2 -0.47,-0.21 -0.45,-0.22 -0.44,-0.22 -0.43,-0.23 -0.41,-0.23 -0.39,-0.24 -0.38,-0.24 -0.36,-0.24 -0.35,-0.24 -0.33,-0.24 -0.31,-0.24 -0.29,-0.25 -0.27,-0.23 -0.26,-0.24 -0.24,-0.23 -0.22,-0.23 -0.2,-0.22 c -1.74,-1.99 -1.89,-3.44 -1.89,-3.54 0,-0.29 0.2,-0.4 0.5,-0.4 0.79,0 1.93,0.7 2.34,0.95 1.05,0.69 1.19,1 1.48,1.94 0.71,2 2.1,3.73 8.38,4.03 -0.89,-11.2 -3.89,-22.11 -8.08,-32.53 -0.3,-0.75 -0.3,-0.84 -0.3,-0.89 0,-0.16 0.16,-0.35 0.5,-0.35 0.8,0 3.19,1.1 3.74,2.4 2.59,6.07 6.69,17.53 8.17,31.37 h 2.59 c 6.08,0 11.91,-2.33 11.91,-7.31 0,-3.74 -3.58,-10.72 -13.25,-11.02 -1.05,-0.04 -1.59,-0.04 -2.98,-0.95 -0.91,-0.59 -1.3,-1.14 -1.3,-1.44 0,-0.34 0.3,-0.34 0.94,-0.34 9.08,0 20.83,7.67 20.83,15.89 0,5.67 -6.72,7.92 -12.5,7.92 z"
           inkscape:connector-curvature="0"
           style="fill:#000000;stroke-width:0" /><path
           id="path19193"
           d="m 504.76,409.15 v -0.4 l -0.01,-0.39 -0.02,-0.38 -0.02,-0.36 -0.02,-0.36 -0.04,-0.35 -0.03,-0.34 -0.05,-0.33 -0.04,-0.32 -0.06,-0.31 -0.05,-0.3 -0.07,-0.29 -0.06,-0.28 -0.07,-0.27 -0.08,-0.27 -0.08,-0.25 -0.08,-0.25 -0.09,-0.24 -0.09,-0.23 -0.1,-0.22 -0.19,-0.42 -0.21,-0.39 -0.22,-0.36 -0.23,-0.33 -0.24,-0.3 -0.25,-0.28 -0.25,-0.25 -0.26,-0.23 -0.26,-0.21 -0.27,-0.18 -0.26,-0.16 -0.27,-0.14 -0.26,-0.13 -0.26,-0.1 -0.26,-0.09 -0.26,-0.08 -0.25,-0.06 -0.24,-0.04 -0.23,-0.04 -0.23,-0.02 -0.21,-0.01 -0.2,-0.01 c -0.77,0 -2.61,0.07 -3.55,1.14 1.42,0.14 1.53,1.33 1.53,1.64 0,0.88 -0.59,1.65 -1.64,1.65 -1.05,0 -1.67,-0.71 -1.67,-1.71 0,-2.37 1.98,-3.84 5.36,-3.84 4.98,0 9.69,4.7 9.69,12.17 0,8.64 -3.83,11.67 -7.91,11.67 -1.16,0 -3.55,-0.17 -5.55,-2.12 -1.17,-1.16 -2.58,-2.52 -2.58,-5.66 0,-4.42 3.54,-7.69 7.61,-7.69 l 0.18,0.97 c -1.36,0 -2.66,0.46 -3.63,2.06 -0.8,1.29 -0.8,2.75 -0.8,4.66 0,2.03 0,3.42 1,4.81 0.85,1.22 1.99,1.96 3.8,1.96 1.78,0 2.83,-1.11 3.39,-2.02 0.94,-1.47 1.03,-3.91 1.03,-5.12 0,-4.54 -2.61,-6.35 -4.79,-6.35 v 0 l -0.18,-0.97 c 2.78,0 4.28,1.85 5.08,3.41 z"
           inkscape:connector-curvature="0"
           style="fill:#000000;stroke-width:0" /></g>    </g>
    <g
       transform="translate(48.396714,-11.88877)"
       id="g19303">
      <g
         style="font-style:normal;font-variant:normal;font-weight:normal;font-stretch:normal;letter-spacing:normal;word-spacing:normal;text-anchor:start;fill:none;fill-opacity:1;fill-rule:evenodd;stroke:#000000;stroke-linecap:butt;stroke-linejoin:miter;stroke-miterlimit:10.43299961;stroke-dasharray:none;stroke-dashoffset:0;stroke-opacity:1"
         id="g19301"
         transform="matrix(0.1062364,0,0,-0.1062364,-18.59137,71.409382)"
         xml:space="preserve"
         stroke-miterlimit="10.433"
         font-style="normal"
         font-variant="normal"
         font-weight="normal"
         font-stretch="normal"
         font-size-adjust="none"
         letter-spacing="normal"
         word-spacing="normal"><path
           style="fill:#000000;stroke-width:0"
           inkscape:connector-curvature="0"
           d="m 472.86,440.23 -0.65,-0.01 -0.64,-0.03 -0.64,-0.05 -0.62,-0.06 -0.61,-0.08 -0.6,-0.1 -0.59,-0.11 -0.58,-0.13 -0.56,-0.14 -0.55,-0.15 -0.54,-0.16 -0.53,-0.18 -0.51,-0.18 -0.5,-0.2 -0.48,-0.2 -0.47,-0.21 -0.45,-0.22 -0.44,-0.22 -0.43,-0.23 -0.41,-0.23 -0.39,-0.24 -0.38,-0.24 -0.36,-0.24 -0.35,-0.24 -0.33,-0.24 -0.31,-0.24 -0.29,-0.25 -0.27,-0.23 -0.26,-0.24 -0.24,-0.23 -0.22,-0.23 -0.2,-0.22 c -1.74,-1.99 -1.89,-3.44 -1.89,-3.54 0,-0.29 0.2,-0.4 0.5,-0.4 0.79,0 1.93,0.7 2.34,0.95 1.05,0.69 1.19,1 1.48,1.94 0.71,2 2.1,3.73 8.38,4.03 -0.89,-11.2 -3.89,-22.11 -8.08,-32.53 -0.3,-0.75 -0.3,-0.84 -0.3,-0.89 0,-0.16 0.16,-0.35 0.5,-0.35 0.8,0 3.19,1.1 3.74,2.4 2.59,6.07 6.69,17.53 8.17,31.37 h 2.59 c 6.08,0 11.91,-2.33 11.91,-7.31 0,-3.74 -3.58,-10.72 -13.25,-11.02 -1.05,-0.04 -1.59,-0.04 -2.98,-0.95 -0.91,-0.59 -1.3,-1.14 -1.3,-1.44 0,-0.34 0.3,-0.34 0.94,-0.34 9.08,0 20.83,7.67 20.83,15.89 0,5.67 -6.72,7.92 -12.5,7.92 z"
           id="path19295" /><path
           style="fill:#000000;stroke-width:0"
           inkscape:connector-curvature="0"
           d="m 501.87,420.92 v 0.04 0.04 0.05 0.04 0.03 0.04 0.04 0.03 l -0.01,0.04 v 0.03 0.03 0.03 0.03 l -0.01,0.03 v 0.03 0.02 l -0.01,0.03 v 0.02 l -0.01,0.03 v 0.02 l -0.02,0.04 -0.01,0.04 -0.02,0.03 -0.02,0.03 -0.02,0.03 -0.02,0.03 -0.03,0.02 -0.03,0.02 -0.03,0.02 -0.04,0.01 -0.04,0.01 -0.05,0.02 h -0.02 -0.02 l -0.03,0.01 h -0.03 l -0.02,0.01 h -0.03 -0.03 -0.03 -0.04 l -0.03,0.01 h -0.03 -0.04 -0.03 -0.04 -0.04 -0.04 -0.04 -0.05 -0.04 -0.05 c -2.23,-2.2 -5.39,-2.23 -6.82,-2.23 v -1.25 c 0.84,0 3.14,0 5.04,0.97 v -17.77 c 0,-1.16 0,-1.61 -3.48,-1.61 h -1.31 v -1.25 c 0.62,0.03 4.9,0.14 6.2,0.14 1.08,0 5.47,-0.11 6.23,-0.14 v 1.25 h -1.32 c -3.49,0 -3.49,0.45 -3.49,1.61 z"
           id="path19297" /><path
           style="fill:#000000;stroke-width:0"
           inkscape:connector-curvature="0"
           d="m 527.98,409.87 -0.01,0.71 -0.01,0.68 -0.03,0.66 -0.05,0.64 -0.05,0.62 -0.08,0.6 -0.09,0.57 -0.11,0.56 -0.13,0.55 -0.14,0.53 -0.17,0.51 -0.19,0.5 -0.21,0.49 -0.24,0.48 -0.26,0.47 -0.14,0.23 -0.15,0.23 c -1.08,1.61 -3.24,3 -6.03,3 v -0.98 c 1.89,0 3.7,-1.14 4.33,-3.17 0.56,-1.88 0.59,-4.39 0.59,-7.43 0,-2.57 0,-5.15 -0.46,-7.34 -0.7,-3.17 -3.06,-3.94 -4.46,-3.94 v 0 c -1.6,0 -3.72,0.94 -4.42,3.8 -0.49,2.05 -0.49,4.91 -0.49,7.48 0,2.55 0,5.21 0.52,7.11 0.73,2.75 2.97,3.49 4.39,3.49 v 0.98 c -8.08,0 -8.08,-9.51 -8.08,-12.03 0,-2.5 0,-11.81 8.08,-11.81 8.09,0 8.09,9.31 8.09,11.81 z"
           id="path19299" /></g>    </g>
    <g
       id="g19419"
       transform="translate(52.919366,6.2808339)">
      <g
         word-spacing="normal"
         letter-spacing="normal"
         font-size-adjust="none"
         font-stretch="normal"
         font-weight="normal"
         font-variant="normal"
         font-style="normal"
         stroke-miterlimit="10.433"
         xml:space="preserve"
         transform="matrix(0.1062364,0,0,-0.1062364,-18.59137,71.409382)"
         id="g19417"
         style="font-style:normal;font-variant:normal;font-weight:normal;font-stretch:normal;letter-spacing:normal;word-spacing:normal;text-anchor:start;fill:none;fill-opacity:1;fill-rule:evenodd;stroke:#000000;stroke-linecap:butt;stroke-linejoin:miter;stroke-miterlimit:10.43299961;stroke-dasharray:none;stroke-dashoffset:0;stroke-opacity:1"><path
           id="path19411"
           d="m 472.86,440.23 -0.65,-0.01 -0.64,-0.03 -0.64,-0.05 -0.62,-0.06 -0.61,-0.08 -0.6,-0.1 -0.59,-0.11 -0.58,-0.13 -0.56,-0.14 -0.55,-0.15 -0.54,-0.16 -0.53,-0.18 -0.51,-0.18 -0.5,-0.2 -0.48,-0.2 -0.47,-0.21 -0.45,-0.22 -0.44,-0.22 -0.43,-0.23 -0.41,-0.23 -0.39,-0.24 -0.38,-0.24 -0.36,-0.24 -0.35,-0.24 -0.33,-0.24 -0.31,-0.24 -0.29,-0.25 -0.27,-0.23 -0.26,-0.24 -0.24,-0.23 -0.22,-0.23 -0.2,-0.22 c -1.74,-1.99 -1.89,-3.44 -1.89,-3.54 0,-0.29 0.2,-0.4 0.5,-0.4 0.79,0 1.93,0.7 2.34,0.95 1.05,0.69 1.19,1 1.48,1.94 0.71,2 2.1,3.73 8.38,4.03 -0.89,-11.2 -3.89,-22.11 -8.08,-32.53 -0.3,-0.75 -0.3,-0.84 -0.3,-0.89 0,-0.16 0.16,-0.35 0.5,-0.35 0.8,0 3.19,1.1 3.74,2.4 2.59,6.07 6.69,17.53 8.17,31.37 h 2.59 c 6.08,0 11.91,-2.33 11.91,-7.31 0,-3.74 -3.58,-10.72 -13.25,-11.02 -1.05,-0.04 -1.59,-0.04 -2.98,-0.95 -0.91,-0.59 -1.3,-1.14 -1.3,-1.44 0,-0.34 0.3,-0.34 0.94,-0.34 9.08,0 20.83,7.67 20.83,15.89 0,5.67 -6.72,7.92 -12.5,7.92 z"
           inkscape:connector-curvature="0"
           style="fill:#000000;stroke-width:0" /><path
           id="path19413"
           d="m 501.87,420.92 v 0.04 0.04 0.05 0.04 0.03 0.04 0.04 0.03 l -0.01,0.04 v 0.03 0.03 0.03 0.03 l -0.01,0.03 v 0.03 0.02 l -0.01,0.03 v 0.02 l -0.01,0.03 v 0.02 l -0.02,0.04 -0.01,0.04 -0.02,0.03 -0.02,0.03 -0.02,0.03 -0.02,0.03 -0.03,0.02 -0.03,0.02 -0.03,0.02 -0.04,0.01 -0.04,0.01 -0.05,0.02 h -0.02 -0.02 l -0.03,0.01 h -0.03 l -0.02,0.01 h -0.03 -0.03 -0.03 -0.04 l -0.03,0.01 h -0.03 -0.04 -0.03 -0.04 -0.04 -0.04 -0.04 -0.05 -0.04 -0.05 c -2.23,-2.2 -5.39,-2.23 -6.82,-2.23 v -1.25 c 0.84,0 3.14,0 5.04,0.97 v -17.77 c 0,-1.16 0,-1.61 -3.48,-1.61 h -1.31 v -1.25 c 0.62,0.03 4.9,0.14 6.2,0.14 1.08,0 5.47,-0.11 6.23,-0.14 v 1.25 h -1.32 c -3.49,0 -3.49,0.45 -3.49,1.61 z"
           inkscape:connector-curvature="0"
           style="fill:#000000;stroke-width:0" /><path
           id="path19415"
           d="m 521.67,420.92 v 0.04 0.04 0.05 0.04 0.03 0.04 l -0.01,0.04 v 0.03 0.04 0.03 0.03 0.03 l -0.01,0.03 v 0.03 0.03 l -0.01,0.02 v 0.03 l -0.01,0.02 v 0.03 l -0.01,0.02 -0.01,0.04 -0.01,0.04 -0.02,0.03 -0.02,0.03 -0.02,0.03 -0.03,0.03 -0.02,0.02 -0.03,0.02 -0.04,0.02 -0.04,0.01 -0.04,0.01 -0.04,0.02 h -0.02 -0.03 l -0.02,0.01 h -0.03 l -0.03,0.01 h -0.03 -0.03 -0.03 -0.03 l -0.03,0.01 h -0.04 -0.03 -0.04 -0.04 -0.03 -0.05 -0.04 -0.04 -0.04 -0.05 c -2.23,-2.2 -5.39,-2.23 -6.83,-2.23 v -1.25 c 0.85,0 3.14,0 5.05,0.97 v -17.77 c 0,-1.16 0,-1.61 -3.49,-1.61 h -1.31 v -1.25 c 0.63,0.03 4.91,0.14 6.21,0.14 1.07,0 5.47,-0.11 6.23,-0.14 v 1.25 h -1.33 c -3.48,0 -3.48,0.45 -3.48,1.61 z"
           inkscape:connector-curvature="0"
           style="fill:#000000;stroke-width:0" /></g>    </g>
    <g
       id="g18989"
       transform="translate(4.7763131,-4.17396)">
      <g
         word-spacing="normal"
         letter-spacing="normal"
         font-size-adjust="none"
         font-stretch="normal"
         font-weight="normal"
         font-variant="normal"
         font-style="normal"
         stroke-miterlimit="10.433"
         xml:space="preserve"
         transform="matrix(0.1062364,0,0,-0.1062364,-18.59137,71.409382)"
         id="g18987"
         style="font-style:normal;font-variant:normal;font-weight:normal;font-stretch:normal;letter-spacing:normal;word-spacing:normal;text-anchor:start;fill:none;fill-opacity:1;fill-rule:evenodd;stroke:#000000;stroke-linecap:butt;stroke-linejoin:miter;stroke-miterlimit:10.43299961;stroke-dasharray:none;stroke-dashoffset:0;stroke-opacity:1"><path
           id="path18983"
           d="m 472.86,440.23 -0.65,-0.01 -0.64,-0.03 -0.64,-0.05 -0.62,-0.06 -0.61,-0.08 -0.6,-0.1 -0.59,-0.11 -0.58,-0.13 -0.56,-0.14 -0.55,-0.15 -0.54,-0.16 -0.53,-0.18 -0.51,-0.18 -0.5,-0.2 -0.48,-0.2 -0.47,-0.21 -0.45,-0.22 -0.44,-0.22 -0.43,-0.23 -0.41,-0.23 -0.39,-0.24 -0.38,-0.24 -0.36,-0.24 -0.35,-0.24 -0.33,-0.24 -0.31,-0.24 -0.29,-0.25 -0.27,-0.23 -0.26,-0.24 -0.24,-0.23 -0.22,-0.23 -0.2,-0.22 c -1.74,-1.99 -1.89,-3.44 -1.89,-3.54 0,-0.29 0.2,-0.4 0.5,-0.4 0.79,0 1.93,0.7 2.34,0.95 1.05,0.69 1.19,1 1.48,1.94 0.71,2 2.1,3.73 8.38,4.03 -0.89,-11.2 -3.89,-22.11 -8.08,-32.53 -0.3,-0.75 -0.3,-0.84 -0.3,-0.89 0,-0.16 0.16,-0.35 0.5,-0.35 0.8,0 3.19,1.1 3.74,2.4 2.59,6.07 6.69,17.53 8.17,31.37 h 2.59 c 6.08,0 11.91,-2.33 11.91,-7.31 0,-3.74 -3.58,-10.72 -13.25,-11.02 -1.05,-0.04 -1.59,-0.04 -2.98,-0.95 -0.91,-0.59 -1.3,-1.14 -1.3,-1.44 0,-0.34 0.3,-0.34 0.94,-0.34 9.08,0 20.83,7.67 20.83,15.89 0,5.67 -6.72,7.92 -12.5,7.92 z"
           inkscape:connector-curvature="0"
           style="fill:#000000;stroke-width:0" /><path
           id="path18985"
           d="m 508.84,419.81 0.03,0.04 0.03,0.03 0.03,0.04 0.02,0.03 0.03,0.03 0.02,0.04 0.02,0.03 0.02,0.03 0.02,0.03 0.01,0.03 0.02,0.03 0.01,0.02 0.01,0.04 0.01,0.03 0.01,0.03 0.01,0.03 0.01,0.04 0.01,0.03 v 0.04 l 0.01,0.04 v 0.04 0.05 l 0.01,0.05 v 0.05 0.05 0.06 0.06 0.07 0.07 0.03 0.04 0.04 0.04 0.04 0.04 h -9.12 c -1.39,0 -1.78,0.03 -3.03,0.14 -1.82,0.14 -1.88,0.39 -1.99,0.98 h -1.18 l -1.22,-7.46 h 1.18 c 0.07,0.53 0.43,2.82 0.97,3.17 0.28,0.22 3.11,0.22 3.63,0.22 h 7.59 c -1.11,-1.47 -2.89,-3.63 -3.61,-4.61 -4.58,-5.99 -4.98,-11.53 -4.98,-13.58 0,-0.39 0,-2 1.62,-2 1.67,0 1.67,1.58 1.67,2.03 v 1.39 c 0,6.77 1.41,9.86 2.91,11.73 z"
           inkscape:connector-curvature="0"
           style="fill:#000000;stroke-width:0" /></g>    </g>
  </g>
  <g
     inkscape:groupmode="layer"
     id="layer3"
     inkscape:label="bar_region"
     style="display:none">
    <g
       style="display:inline"
       transform="translate(12.027129,3.4745097)"
       id="g19568">
      <g
         style="font-style:normal;font-variant:normal;font-weight:normal;font-stretch:normal;letter-spacing:normal;word-spacing:normal;text-anchor:start;fill:none;fill-opacity:1;fill-rule:evenodd;stroke:#000000;stroke-linecap:butt;stroke-linejoin:miter;stroke-miterlimit:10.43299961;stroke-dasharray:none;stroke-dashoffset:0;stroke-opacity:1"
         id="g19566"
         transform="matrix(0.1062364,0,0,-0.1062364,-18.59137,71.409382)"
         xml:space="preserve"
         stroke-miterlimit="10.433"
         font-style="normal"
         font-variant="normal"
         font-weight="normal"
         font-stretch="normal"
         font-size-adjust="none"
         letter-spacing="normal"
         word-spacing="normal"><polygon
           style="fill:#000000;stroke-width:0"
           points="470.12,446.64 488.1,446.64 488.1,448.19 470.12,448.19 "
           id="polygon19560" /><path
           style="fill:#000000;stroke-width:0"
           inkscape:connector-curvature="0"
           d="m 472.86,440.23 -0.65,-0.01 -0.64,-0.03 -0.64,-0.05 -0.62,-0.06 -0.61,-0.08 -0.6,-0.1 -0.59,-0.11 -0.58,-0.13 -0.56,-0.14 -0.55,-0.15 -0.54,-0.16 -0.53,-0.18 -0.51,-0.18 -0.5,-0.2 -0.48,-0.2 -0.47,-0.21 -0.45,-0.22 -0.44,-0.22 -0.43,-0.23 -0.41,-0.23 -0.39,-0.24 -0.38,-0.24 -0.36,-0.24 -0.35,-0.24 -0.33,-0.24 -0.31,-0.24 -0.29,-0.25 -0.27,-0.23 -0.26,-0.24 -0.24,-0.23 -0.22,-0.23 -0.2,-0.22 c -1.74,-1.99 -1.89,-3.44 -1.89,-3.54 0,-0.29 0.2,-0.4 0.5,-0.4 0.79,0 1.93,0.7 2.34,0.95 1.05,0.69 1.19,1 1.48,1.94 0.71,2 2.1,3.73 8.38,4.03 -0.89,-11.2 -3.89,-22.11 -8.08,-32.53 -0.3,-0.75 -0.3,-0.84 -0.3,-0.89 0,-0.16 0.16,-0.35 0.5,-0.35 0.8,0 3.19,1.1 3.74,2.4 2.59,6.07 6.69,17.53 8.17,31.37 h 2.59 c 6.08,0 11.91,-2.33 11.91,-7.31 0,-3.74 -3.58,-10.72 -13.25,-11.02 -1.05,-0.04 -1.59,-0.04 -2.98,-0.95 -0.91,-0.59 -1.3,-1.14 -1.3,-1.44 0,-0.34 0.3,-0.34 0.94,-0.34 9.08,0 20.83,7.67 20.83,15.89 0,5.67 -6.72,7.92 -12.5,7.92 z"
           id="path19562" /><path
           style="fill:#000000;stroke-width:0"
           inkscape:connector-curvature="0"
           d="m 501.87,420.92 v 0.04 0.04 0.05 0.04 0.03 0.04 0.04 0.03 l -0.01,0.04 v 0.03 0.03 0.03 0.03 l -0.01,0.03 v 0.03 0.02 l -0.01,0.03 v 0.02 l -0.01,0.03 v 0.02 l -0.02,0.04 -0.01,0.04 -0.02,0.03 -0.02,0.03 -0.02,0.03 -0.02,0.03 -0.03,0.02 -0.03,0.02 -0.03,0.02 -0.04,0.01 -0.04,0.01 -0.05,0.02 h -0.02 -0.02 l -0.03,0.01 h -0.03 l -0.02,0.01 h -0.03 -0.03 -0.03 -0.04 l -0.03,0.01 h -0.03 -0.04 -0.03 -0.04 -0.04 -0.04 -0.04 -0.05 -0.04 -0.05 c -2.23,-2.2 -5.39,-2.23 -6.82,-2.23 v -1.25 c 0.84,0 3.14,0 5.04,0.97 v -17.77 c 0,-1.16 0,-1.61 -3.48,-1.61 h -1.31 v -1.25 c 0.62,0.03 4.9,0.14 6.2,0.14 1.08,0 5.47,-0.11 6.23,-0.14 v 1.25 h -1.32 c -3.49,0 -3.49,0.45 -3.49,1.61 z"
           id="path19564" /></g>    </g>
    <g
       style="display:inline"
       id="g19704"
       transform="translate(24.22017,1.1714296)">
      <g
         word-spacing="normal"
         letter-spacing="normal"
         font-size-adjust="none"
         font-stretch="normal"
         font-weight="normal"
         font-variant="normal"
         font-style="normal"
         stroke-miterlimit="10.433"
         xml:space="preserve"
         transform="matrix(0.1062364,0,0,-0.1062364,-18.59137,71.409382)"
         id="g19702"
         style="font-style:normal;font-variant:normal;font-weight:normal;font-stretch:normal;letter-spacing:normal;word-spacing:normal;text-anchor:start;fill:none;fill-opacity:1;fill-rule:evenodd;stroke:#000000;stroke-linecap:butt;stroke-linejoin:miter;stroke-miterlimit:10.43299961;stroke-dasharray:none;stroke-dashoffset:0;stroke-opacity:1"><polygon
           id="polygon19696"
           points="470.12,446.64 488.1,446.64 488.1,448.19 470.12,448.19 "
           style="fill:#000000;stroke-width:0" /><path
           id="path19698"
           d="m 472.86,440.23 -0.65,-0.01 -0.64,-0.03 -0.64,-0.05 -0.62,-0.06 -0.61,-0.08 -0.6,-0.1 -0.59,-0.11 -0.58,-0.13 -0.56,-0.14 -0.55,-0.15 -0.54,-0.16 -0.53,-0.18 -0.51,-0.18 -0.5,-0.2 -0.48,-0.2 -0.47,-0.21 -0.45,-0.22 -0.44,-0.22 -0.43,-0.23 -0.41,-0.23 -0.39,-0.24 -0.38,-0.24 -0.36,-0.24 -0.35,-0.24 -0.33,-0.24 -0.31,-0.24 -0.29,-0.25 -0.27,-0.23 -0.26,-0.24 -0.24,-0.23 -0.22,-0.23 -0.2,-0.22 c -1.74,-1.99 -1.89,-3.44 -1.89,-3.54 0,-0.29 0.2,-0.4 0.5,-0.4 0.79,0 1.93,0.7 2.34,0.95 1.05,0.69 1.19,1 1.48,1.94 0.71,2 2.1,3.73 8.38,4.03 -0.89,-11.2 -3.89,-22.11 -8.08,-32.53 -0.3,-0.75 -0.3,-0.84 -0.3,-0.89 0,-0.16 0.16,-0.35 0.5,-0.35 0.8,0 3.19,1.1 3.74,2.4 2.59,6.07 6.69,17.53 8.17,31.37 h 2.59 c 6.08,0 11.91,-2.33 11.91,-7.31 0,-3.74 -3.58,-10.72 -13.25,-11.02 -1.05,-0.04 -1.59,-0.04 -2.98,-0.95 -0.91,-0.59 -1.3,-1.14 -1.3,-1.44 0,-0.34 0.3,-0.34 0.94,-0.34 9.08,0 20.83,7.67 20.83,15.89 0,5.67 -6.72,7.92 -12.5,7.92 z"
           inkscape:connector-curvature="0"
           style="fill:#000000;stroke-width:0" /><path
           id="path19700"
           d="m 507.79,405.11 h -1.18 c -0.1,-0.77 -0.46,-2.83 -0.91,-3.18 -0.27,-0.2 -2.95,-0.2 -3.44,-0.2 h -6.42 c 3.66,3.23 4.87,4.2 6.97,5.84 2.58,2.07 4.98,4.22 4.98,7.54 0,4.21 -3.68,6.79 -8.15,6.79 -4.32,0 -7.25,-3.03 -7.25,-6.23 0,-1.78 1.5,-1.96 1.86,-1.96 0.82,0 1.84,0.6 1.84,1.85 0,0.62 -0.25,1.84 -2.06,1.84 1.08,2.47 3.45,3.24 5.09,3.24 3.49,0 5.3,-2.71 5.3,-5.53 0,-3.04 -2.16,-5.44 -3.28,-6.69 l -8.39,-8.3 c -0.36,-0.31 -0.36,-0.39 -0.36,-1.36 h 14.36 z"
           inkscape:connector-curvature="0"
           style="fill:#000000;stroke-width:0" /></g>    </g>
    <g
       transform="translate(38.441031,6.5395796)"
       id="g19862">
      <g
         style="font-style:normal;font-variant:normal;font-weight:normal;font-stretch:normal;letter-spacing:normal;word-spacing:normal;text-anchor:start;fill:none;fill-opacity:1;fill-rule:evenodd;stroke:#000000;stroke-linecap:butt;stroke-linejoin:miter;stroke-miterlimit:10.43299961;stroke-dasharray:none;stroke-dashoffset:0;stroke-opacity:1"
         id="g19860"
         transform="matrix(0.1062364,0,0,-0.1062364,-18.59137,71.409382)"
         xml:space="preserve"
         stroke-miterlimit="10.433"
         font-style="normal"
         font-variant="normal"
         font-weight="normal"
         font-stretch="normal"
         font-size-adjust="none"
         letter-spacing="normal"
         word-spacing="normal"><polygon
           style="fill:#000000;stroke-width:0"
           points="470.12,446.64 488.1,446.64 488.1,448.19 470.12,448.19 "
           id="polygon19854" /><path
           style="fill:#000000;stroke-width:0"
           inkscape:connector-curvature="0"
           d="m 472.86,440.23 -0.65,-0.01 -0.64,-0.03 -0.64,-0.05 -0.62,-0.06 -0.61,-0.08 -0.6,-0.1 -0.59,-0.11 -0.58,-0.13 -0.56,-0.14 -0.55,-0.15 -0.54,-0.16 -0.53,-0.18 -0.51,-0.18 -0.5,-0.2 -0.48,-0.2 -0.47,-0.21 -0.45,-0.22 -0.44,-0.22 -0.43,-0.23 -0.41,-0.23 -0.39,-0.24 -0.38,-0.24 -0.36,-0.24 -0.35,-0.24 -0.33,-0.24 -0.31,-0.24 -0.29,-0.25 -0.27,-0.23 -0.26,-0.24 -0.24,-0.23 -0.22,-0.23 -0.2,-0.22 c -1.74,-1.99 -1.89,-3.44 -1.89,-3.54 0,-0.29 0.2,-0.4 0.5,-0.4 0.79,0 1.93,0.7 2.34,0.95 1.05,0.69 1.19,1 1.48,1.94 0.71,2 2.1,3.73 8.38,4.03 -0.89,-11.2 -3.89,-22.11 -8.08,-32.53 -0.3,-0.75 -0.3,-0.84 -0.3,-0.89 0,-0.16 0.16,-0.35 0.5,-0.35 0.8,0 3.19,1.1 3.74,2.4 2.59,6.07 6.69,17.53 8.17,31.37 h 2.59 c 6.08,0 11.91,-2.33 11.91,-7.31 0,-3.74 -3.58,-10.72 -13.25,-11.02 -1.05,-0.04 -1.59,-0.04 -2.98,-0.95 -0.91,-0.59 -1.3,-1.14 -1.3,-1.44 0,-0.34 0.3,-0.34 0.94,-0.34 9.08,0 20.83,7.67 20.83,15.89 0,5.67 -6.72,7.92 -12.5,7.92 z"
           id="path19856" /><path
           style="fill:#000000;stroke-width:0"
           inkscape:connector-curvature="0"
           d="m 499.71,410.4 h 0.26 l 0.25,-0.02 0.24,-0.03 0.24,-0.04 0.23,-0.05 0.23,-0.06 0.22,-0.07 0.21,-0.08 0.21,-0.1 0.2,-0.1 0.2,-0.12 0.19,-0.12 0.18,-0.14 0.17,-0.15 0.17,-0.16 0.16,-0.17 0.15,-0.18 0.14,-0.19 0.14,-0.2 0.13,-0.22 0.11,-0.22 0.11,-0.24 0.1,-0.24 0.09,-0.26 0.08,-0.27 0.07,-0.28 0.06,-0.29 0.05,-0.3 0.04,-0.31 0.02,-0.32 0.02,-0.33 0.01,-0.35 c 0,-4.33 -2.52,-5.61 -4.53,-5.61 -1.4,0 -4.47,0.38 -5.93,2.44 1.63,0.06 2.02,1.22 2.02,1.95 0,1.11 -0.84,1.91 -1.92,1.91 -0.97,0 -1.96,-0.59 -1.96,-2.02 0,-3.28 3.63,-5.4 7.85,-5.4 4.84,0 8.19,3.25 8.19,6.73 0,2.72 -2.22,5.44 -6.07,6.24 3.66,1.33 4.99,3.93 4.99,6.06 0,2.75 -3.17,4.81 -7.03,4.81 -3.88,0 -6.83,-1.89 -6.83,-4.67 0,-1.19 0.76,-1.84 1.81,-1.84 1.08,0 1.77,0.79 1.77,1.76 0,1.02 -0.69,1.75 -1.77,1.81 1.22,1.55 3.61,1.93 4.91,1.93 1.56,0 3.76,-0.77 3.76,-3.8 0,-1.47 -0.48,-3.06 -1.39,-4.14 -1.15,-1.33 -2.12,-1.41 -3.87,-1.5 -0.88,-0.08 -0.94,-0.08 -1.11,-0.11 -0.08,0 -0.36,-0.06 -0.36,-0.45 0,-0.49 0.31,-0.49 0.9,-0.49 z"
           id="path19858" /></g>    </g>
    <g
       id="g20020"
       transform="translate(29.231474,17.67533)">
      <g
         word-spacing="normal"
         letter-spacing="normal"
         font-size-adjust="none"
         font-stretch="normal"
         font-weight="normal"
         font-variant="normal"
         font-style="normal"
         stroke-miterlimit="10.433"
         xml:space="preserve"
         transform="matrix(0.1062364,0,0,-0.1062364,-18.59137,71.409382)"
         id="g20018"
         style="font-style:normal;font-variant:normal;font-weight:normal;font-stretch:normal;letter-spacing:normal;word-spacing:normal;text-anchor:start;fill:none;fill-opacity:1;fill-rule:evenodd;stroke:#000000;stroke-linecap:butt;stroke-linejoin:miter;stroke-miterlimit:10.43299961;stroke-dasharray:none;stroke-dashoffset:0;stroke-opacity:1"><polygon
           id="polygon20012"
           points="470.12,446.64 488.1,446.64 488.1,448.19 470.12,448.19 "
           style="fill:#000000;stroke-width:0" /><path
           id="path20014"
           d="m 472.86,440.23 -0.65,-0.01 -0.64,-0.03 -0.64,-0.05 -0.62,-0.06 -0.61,-0.08 -0.6,-0.1 -0.59,-0.11 -0.58,-0.13 -0.56,-0.14 -0.55,-0.15 -0.54,-0.16 -0.53,-0.18 -0.51,-0.18 -0.5,-0.2 -0.48,-0.2 -0.47,-0.21 -0.45,-0.22 -0.44,-0.22 -0.43,-0.23 -0.41,-0.23 -0.39,-0.24 -0.38,-0.24 -0.36,-0.24 -0.35,-0.24 -0.33,-0.24 -0.31,-0.24 -0.29,-0.25 -0.27,-0.23 -0.26,-0.24 -0.24,-0.23 -0.22,-0.23 -0.2,-0.22 c -1.74,-1.99 -1.89,-3.44 -1.89,-3.54 0,-0.29 0.2,-0.4 0.5,-0.4 0.79,0 1.93,0.7 2.34,0.95 1.05,0.69 1.19,1 1.48,1.94 0.71,2 2.1,3.73 8.38,4.03 -0.89,-11.2 -3.89,-22.11 -8.08,-32.53 -0.3,-0.75 -0.3,-0.84 -0.3,-0.89 0,-0.16 0.16,-0.35 0.5,-0.35 0.8,0 3.19,1.1 3.74,2.4 2.59,6.07 6.69,17.53 8.17,31.37 h 2.59 c 6.08,0 11.91,-2.33 11.91,-7.31 0,-3.74 -3.58,-10.72 -13.25,-11.02 -1.05,-0.04 -1.59,-0.04 -2.98,-0.95 -0.91,-0.59 -1.3,-1.14 -1.3,-1.44 0,-0.34 0.3,-0.34 0.94,-0.34 9.08,0 20.83,7.67 20.83,15.89 0,5.67 -6.72,7.92 -12.5,7.92 z"
           inkscape:connector-curvature="0"
           style="fill:#000000;stroke-width:0" /><path
           id="path20016"
           d="m 508.64,404.48 v 1.25 h -3.88 v 15.55 c 0,0.72 0,0.97 -0.76,0.97 -0.43,0 -0.57,0 -0.91,-0.49 l -11.53,-16.03 v -1.25 h 10.25 l 0.23,1.25 h -9.2 l 9.2,12.75 v -12.75 l -0.23,-1.25 v -2.86 c 0,-1.19 0,-1.61 -2.83,-1.61 h -0.94 v -1.25 c 1.74,0.06 3.97,0.14 5.22,0.14 1.3,0 3.52,-0.08 5.27,-0.14 v 1.25 h -0.94 c -2.83,0 -2.83,0.42 -2.83,1.61 v 2.86 z"
           inkscape:connector-curvature="0"
           style="fill:#000000;stroke-width:0" /></g>    </g>
    <g
       transform="translate(18.273423,17.5417)"
       id="g20188">
      <g
         style="font-style:normal;font-variant:normal;font-weight:normal;font-stretch:normal;letter-spacing:normal;word-spacing:normal;text-anchor:start;fill:none;fill-opacity:1;fill-rule:evenodd;stroke:#000000;stroke-linecap:butt;stroke-linejoin:miter;stroke-miterlimit:10.43299961;stroke-dasharray:none;stroke-dashoffset:0;stroke-opacity:1"
         id="g20186"
         transform="matrix(0.1062364,0,0,-0.1062364,-18.59137,71.409382)"
         xml:space="preserve"
         stroke-miterlimit="10.433"
         font-style="normal"
         font-variant="normal"
         font-weight="normal"
         font-stretch="normal"
         font-size-adjust="none"
         letter-spacing="normal"
         word-spacing="normal"><polygon
           style="fill:#000000;stroke-width:0"
           points="470.12,446.64 488.1,446.64 488.1,448.19 470.12,448.19 "
           id="polygon20180" /><path
           style="fill:#000000;stroke-width:0"
           inkscape:connector-curvature="0"
           d="m 472.86,440.23 -0.65,-0.01 -0.64,-0.03 -0.64,-0.05 -0.62,-0.06 -0.61,-0.08 -0.6,-0.1 -0.59,-0.11 -0.58,-0.13 -0.56,-0.14 -0.55,-0.15 -0.54,-0.16 -0.53,-0.18 -0.51,-0.18 -0.5,-0.2 -0.48,-0.2 -0.47,-0.21 -0.45,-0.22 -0.44,-0.22 -0.43,-0.23 -0.41,-0.23 -0.39,-0.24 -0.38,-0.24 -0.36,-0.24 -0.35,-0.24 -0.33,-0.24 -0.31,-0.24 -0.29,-0.25 -0.27,-0.23 -0.26,-0.24 -0.24,-0.23 -0.22,-0.23 -0.2,-0.22 c -1.74,-1.99 -1.89,-3.44 -1.89,-3.54 0,-0.29 0.2,-0.4 0.5,-0.4 0.79,0 1.93,0.7 2.34,0.95 1.05,0.69 1.19,1 1.48,1.94 0.71,2 2.1,3.73 8.38,4.03 -0.89,-11.2 -3.89,-22.11 -8.08,-32.53 -0.3,-0.75 -0.3,-0.84 -0.3,-0.89 0,-0.16 0.16,-0.35 0.5,-0.35 0.8,0 3.19,1.1 3.74,2.4 2.59,6.07 6.69,17.53 8.17,31.37 h 2.59 c 6.08,0 11.91,-2.33 11.91,-7.31 0,-3.74 -3.58,-10.72 -13.25,-11.02 -1.05,-0.04 -1.59,-0.04 -2.98,-0.95 -0.91,-0.59 -1.3,-1.14 -1.3,-1.44 0,-0.34 0.3,-0.34 0.94,-0.34 9.08,0 20.83,7.67 20.83,15.89 0,5.67 -6.72,7.92 -12.5,7.92 z"
           id="path20182" /><path
           style="fill:#000000;stroke-width:0"
           inkscape:connector-curvature="0"
           d="m 495.61,418.2 0.16,-0.04 0.16,-0.04 0.15,-0.04 0.15,-0.03 0.15,-0.03 0.14,-0.03 0.14,-0.03 0.14,-0.02 0.13,-0.03 0.13,-0.02 0.12,-0.02 0.12,-0.01 0.12,-0.02 0.11,-0.01 0.11,-0.02 0.1,-0.01 0.11,-0.01 0.09,-0.01 h 0.1 l 0.09,-0.01 0.09,-0.01 h 0.08 0.09 l 0.07,-0.01 h 0.08 0.07 0.07 0.07 0.06 0.06 0.06 0.05 c 4.59,0 7.31,3.14 7.31,3.67 0,0.37 -0.23,0.48 -0.4,0.48 -0.08,0 -0.14,0 -0.28,-0.11 -0.85,-0.31 -2.69,-1.01 -5.27,-1.01 -0.97,0 -2.83,0.08 -5.09,0.95 -0.35,0.17 -0.41,0.17 -0.46,0.17 -0.45,0 -0.45,-0.39 -0.45,-0.94 v -10.28 c 0,-0.59 0,-1.01 0.56,-1.01 0.31,0 0.35,0.06 0.71,0.48 1.5,1.92 3.62,2.21 4.84,2.21 2.08,0 3.03,-1.68 3.2,-1.96 0.63,-1.15 0.83,-2.47 0.83,-4.5 0,-1.04 0,-3.09 -1.05,-4.62 -0.86,-1.27 -2.36,-2.1 -4.06,-2.1 -2.26,0 -4.61,1.25 -5.48,3.55 1.32,-0.09 1.98,0.77 1.98,1.7 0,1.5 -1.28,1.78 -1.73,1.78 -0.07,0 -1.75,0 -1.75,-1.87 0,-3.14 2.86,-6.28 7.04,-6.28 4.46,0 8.36,3.31 8.36,7.7 0,3.94 -3,7.56 -7.31,7.56 -1.53,0 -3.34,-0.37 -4.87,-1.7 z"
           id="path20184" /></g>    </g>
    <g
       id="g20366"
       transform="translate(7.1915154,11.39235)">
      <g
         word-spacing="normal"
         letter-spacing="normal"
         font-size-adjust="none"
         font-stretch="normal"
         font-weight="normal"
         font-variant="normal"
         font-style="normal"
         stroke-miterlimit="10.433"
         xml:space="preserve"
         transform="matrix(0.1062364,0,0,-0.1062364,-18.59137,71.409382)"
         id="g20364"
         style="font-style:normal;font-variant:normal;font-weight:normal;font-stretch:normal;letter-spacing:normal;word-spacing:normal;text-anchor:start;fill:none;fill-opacity:1;fill-rule:evenodd;stroke:#000000;stroke-linecap:butt;stroke-linejoin:miter;stroke-miterlimit:10.43299961;stroke-dasharray:none;stroke-dashoffset:0;stroke-opacity:1"><polygon
           id="polygon20358"
           points="470.12,446.64 488.1,446.64 488.1,448.19 470.12,448.19 "
           style="fill:#000000;stroke-width:0" /><path
           id="path20360"
           d="m 472.86,440.23 -0.65,-0.01 -0.64,-0.03 -0.64,-0.05 -0.62,-0.06 -0.61,-0.08 -0.6,-0.1 -0.59,-0.11 -0.58,-0.13 -0.56,-0.14 -0.55,-0.15 -0.54,-0.16 -0.53,-0.18 -0.51,-0.18 -0.5,-0.2 -0.48,-0.2 -0.47,-0.21 -0.45,-0.22 -0.44,-0.22 -0.43,-0.23 -0.41,-0.23 -0.39,-0.24 -0.38,-0.24 -0.36,-0.24 -0.35,-0.24 -0.33,-0.24 -0.31,-0.24 -0.29,-0.25 -0.27,-0.23 -0.26,-0.24 -0.24,-0.23 -0.22,-0.23 -0.2,-0.22 c -1.74,-1.99 -1.89,-3.44 -1.89,-3.54 0,-0.29 0.2,-0.4 0.5,-0.4 0.79,0 1.93,0.7 2.34,0.95 1.05,0.69 1.19,1 1.48,1.94 0.71,2 2.1,3.73 8.38,4.03 -0.89,-11.2 -3.89,-22.11 -8.08,-32.53 -0.3,-0.75 -0.3,-0.84 -0.3,-0.89 0,-0.16 0.16,-0.35 0.5,-0.35 0.8,0 3.19,1.1 3.74,2.4 2.59,6.07 6.69,17.53 8.17,31.37 h 2.59 c 6.08,0 11.91,-2.33 11.91,-7.31 0,-3.74 -3.58,-10.72 -13.25,-11.02 -1.05,-0.04 -1.59,-0.04 -2.98,-0.95 -0.91,-0.59 -1.3,-1.14 -1.3,-1.44 0,-0.34 0.3,-0.34 0.94,-0.34 9.08,0 20.83,7.67 20.83,15.89 0,5.67 -6.72,7.92 -12.5,7.92 z"
           inkscape:connector-curvature="0"
           style="fill:#000000;stroke-width:0" /><path
           id="path20362"
           d="m 495.43,410.15 0.01,0.53 0.01,0.53 0.01,0.52 0.03,0.51 0.04,0.51 0.05,0.49 0.06,0.49 0.08,0.48 0.09,0.47 0.11,0.46 0.13,0.46 0.14,0.44 0.08,0.22 0.09,0.21 0.09,0.22 0.1,0.21 0.1,0.21 0.11,0.2 0.11,0.2 0.13,0.2 c 1.18,1.9 3.06,3.18 5.29,3.18 1.05,0 2.44,-0.28 3.14,-1.22 -0.87,-0.06 -1.61,-0.66 -1.61,-1.67 0,-0.88 0.6,-1.64 1.64,-1.64 1.05,0 1.68,0.7 1.68,1.7 0,2.03 -1.47,3.84 -4.93,3.84 -5.01,0 -10.14,-4.61 -10.14,-12.09 0,-9.03 4.25,-11.75 8.1,-11.75 4.25,0 7.94,3.25 7.94,7.81 0,4.42 -3.52,7.7 -7.6,7.7 l -0.17,-0.98 c 1.61,0 2.69,-0.63 3.55,-1.91 0.84,-1.32 0.87,-2.79 0.87,-4.81 0,-1.98 0,-3.45 -0.94,-4.81 -0.84,-1.22 -1.95,-1.88 -3.65,-1.88 v 0 c -1.75,0 -3.11,1 -3.85,2.55 -0.51,1.03 -0.79,2.78 -0.79,4.88 0,3.37 2.03,5.98 4.81,5.98 l 0.17,0.98 c -2.78,0 -4.31,-1.84 -5.08,-3.42 z"
           inkscape:connector-curvature="0"
           style="fill:#000000;stroke-width:0" /></g>    </g>
  </g>
</svg>
